<svg xmlns="http://www.w3.org/2000/svg" xmlns:xlink="http://www.w3.org/1999/xlink" version="1.1"
	width="100" height="50" viewBox="0 0 3146.3414634146343 1375.6097560975609">

	<g transform="scale(7.317073170731708) translate(10, 10)">
		<defs id="SvgjsDefs2342"></defs>
		<g id="SvgjsG2343" featureKey="rootContainer" transform="matrix(1,0,0,1,0,0)" fill="none">
			<rect xmlns="http://www.w3.org/2000/svg" width="410" height="168" rx="10" ry="10"></rect>
		</g>
		<g id="SvgjsG2344" featureKey="hmhgWD-0"
			transform="matrix(0.9961349579450618,0,0,0.9961349579450618,16.809601721073793,35.897519408750824)"
			fill="#112d4e">
			<g xmlns="http://www.w3.org/2000/svg">
				<rect x="12.791" y="42.427" transform="matrix(0.9852 -0.1715 0.1715 0.9852 -7.1501 4.6061)"
					width="20.594" height="2.534"></rect>
				<rect x="18.904" y="38.404" transform="matrix(0.1715 0.9852 -0.9852 0.1715 65.3756 21.0534)"
					width="2.535" height="21.981"></rect>
				<rect x="20.914" y="51.604"
					transform="matrix(-0.9852 0.1715 -0.1715 -0.9852 68.7011 99.807)" width="18.253"
					height="2.533"></rect>
				<rect x="3.112" y="57.838" transform="matrix(0.9852 -0.1714 0.1714 0.9852 -9.7766 4.9994)"
					width="41.891" height="2.534"></rect>
				<path
					d="M40.454,73.725c2.704-0.471,4.629-2.771,4.729-5.406l35.666-6.207c0.985,2.448,3.572,3.962,6.275,3.492   c2.702-0.471,4.627-2.771,4.729-5.406l4.942-0.86l-3.682-21.155L76.12,24.196l-53.34,9.282l0.594,3.409l2.496-0.434l-0.159-0.914   l49.697-8.648l15.369,12.649l3.086,17.733l-2.48,0.432c-1.024-2.366-3.564-3.819-6.217-3.357c-2.654,0.462-4.552,2.688-4.716,5.26   l-35.737,6.219c-1.023-2.366-3.563-3.819-6.217-3.357c-2.653,0.462-4.553,2.688-4.716,5.26l-2.396,0.417l-0.701-4.029l2.153-0.374   l-0.435-2.497l-17.37,3.022l0.435,2.497l12.721-2.214l1.136,6.526l4.855-0.846c0.861,2.142,2.949,3.567,5.268,3.577H17.5v1.994   h77.783V73.81H39.452C39.782,73.811,40.117,73.783,40.454,73.725z M85.531,56.444c1.951-0.339,3.808,0.967,4.146,2.917   c0.34,1.95-0.966,3.806-2.917,4.146c-1.95,0.339-3.807-0.967-4.146-2.917C82.275,58.64,83.581,56.784,85.531,56.444z    M35.944,68.711c-0.339-1.95,0.967-3.806,2.917-4.146c1.95-0.339,3.806,0.967,4.146,2.917c0.339,1.95-0.966,3.806-2.917,4.146   C38.14,71.967,36.284,70.661,35.944,68.711z"></path>
				<polygon
					points="71.571,43.216 73.991,42.795 84.525,40.962 84.104,38.542 73.57,40.375 71.737,29.842 69.317,30.263 71.15,40.796     "></polygon>
				<path
					d="M43.758,49.736l-1.722,0.307c-0.457,0.083-0.756,0.551-0.667,1.049c0.088,0.493,0.531,0.828,0.989,0.745l27.431-4.9   c0.458-0.082,0.758-0.551,0.67-1.046c-0.089-0.497-0.534-0.832-0.99-0.75l-1.722,0.308c-1.754-5.151-6.953-8.498-12.599-8.022   l-0.101-0.569c-0.172-0.956-0.836-1.638-1.486-1.522c-0.649,0.116-1.036,0.986-0.866,1.943l0.103,0.568   C47.338,39.356,43.621,44.296,43.758,49.736z"></path>
			</g>
		</g>
		<g id="SvgjsG2345" featureKey="1RRcwp-0"
			transform="matrix(5.025787073902151,0,0,5.025787073902151,123.55152032502878,16.7292949388875)"
			fill="#112d4e">
			<path
				d="M2.04 20 c-0.1 0 -0.16 -0.08 -0.16 -0.18 l0 -12.84 c0 -0.1 0.06 -0.18 0.16 -0.18 l6.8 0 c0.1 0 0.18 0.08 0.18 0.18 l0 2.14 c0 0.1 -0.08 0.18 -0.18 0.18 l-4.32 0 l0 2.72 l3.36 0 c0.1 0 0.16 0.08 0.16 0.18 l0 2.18 c0 0.1 -0.06 0.18 -0.16 0.18 l-3.36 0 l0 2.94 l4.32 0 c0.1 0 0.18 0.08 0.18 0.18 l0 2.14 c0 0.1 -0.08 0.18 -0.18 0.18 l-6.8 0 z M3.04 8.06 l0 10.64 c0 0.12 0.08 0.16 0.16 0.16 l4.6 0 c0.18 0 0.14 -0.24 0 -0.24 l-4.5 0 l0 -5.22 l3.68 0 c0.12 0 0.12 -0.28 0 -0.28 l-3.68 0 l0 -4.96 l4.5 0 c0.14 0 0.18 -0.26 0 -0.26 l-4.6 0 c-0.08 0 -0.16 0.06 -0.16 0.16 z M14.899999999999999 6.92 c0.02 -0.06 0.06 -0.12 0.14 -0.12 l2.48 0 c0.08 0 0.12 0.06 0.14 0.12 l3.46 12.86 c0.02 0.12 -0.06 0.22 -0.18 0.22 l-2.28 0 c-0.06 0 -0.12 -0.04 -0.14 -0.12 l-0.78 -2.8 l-2.92 0 l-0.76 2.8 c-0.02 0.08 -0.06 0.12 -0.14 0.12 l-2.3 0 c-0.12 0 -0.2 -0.1 -0.18 -0.22 z M15.46 14.6 l1.66 0 l-0.86 -3.02 z M18.54 15.780000000000001 l0.92 3 c0.04 0.12 0.26 0.1 0.2 -0.06 l-3.2 -10.64 c-0.06 -0.26 -0.4 -0.28 -0.46 0 l-3.1 10.64 c-0.06 0.14 0.16 0.2 0.22 0.08 l0.88 -3.02 l4.54 0 z M14.059999999999999 15.52 l2.18 -7.36 l2.22 7.36 l-4.4 0 z M25.98 9.3 l-2.84 0 c-0.1 0 -0.18 -0.08 -0.18 -0.18 l0 -2.14 c0 -0.1 0.08 -0.18 0.18 -0.18 l8.34 0 c0.1 0 0.18 0.08 0.18 0.18 l0 2.14 c0 0.1 -0.08 0.18 -0.18 0.18 l-2.84 0 l0 10.52 c0 0.1 -0.08 0.18 -0.18 0.18 l-2.3 0 c-0.1 0 -0.18 -0.08 -0.18 -0.18 l0 -10.52 z M30.259999999999998 7.9 l-6.04 0 c-0.14 0 -0.14 0.26 0 0.26 l2.96 0 l0 10.6 c0 0.14 0.26 0.14 0.26 0 l0 -10.6 l2.82 0 c0.2 0 0.18 -0.26 0 -0.26 z M38.96 11.9 c1.52 0.72 3.5 1.86 3.5 3.92 c0 0.6 -0.1 1.76 -0.76 2.74 c-0.74 1.1 -1.9 1.64 -3.5 1.64 c-1.7 0 -3.68 -0.82 -4.3 -2.68 c-0.02 -0.06 0 -0.12 0.06 -0.16 l1.84 -1.58 c0.08 -0.06 0.2 -0.06 0.26 0.04 c0.04 0.1 0.12 0.26 0.22 0.46 c0.3 0.62 1.02 1.24 1.82 1.24 c0.62 0 1.46 -0.34 1.46 -1.3 c0 -0.92 -1.26 -1.44 -2.04 -1.74 c-0.9 -0.36 -1.82 -0.82 -2.6 -1.5 c-0.82 -0.76 -1.22 -1.6 -1.22 -2.6 c0 -2.5 2.3 -3.76 4.48 -3.76 c1.72 0 3 0.9 3.84 2.68 c0.04 0.08 0 0.18 -0.06 0.22 l-1.78 1.24 c-0.08 0.04 -0.12 0.04 -0.2 -0.06 c-0.68 -0.98 -1.28 -1.44 -2.08 -1.44 c-0.42 0 -1.4 0.16 -1.4 0.9 c0 0.9 1.66 1.36 2.46 1.74 z M35.32 17.42 c0.5 1 1.88 1.58 3 1.58 c1.46 0 2.64 -1 2.8 -2.52 c0.2 -1.86 -1.26 -2.66 -2.7 -3.38 l-0.64 -0.28 c-1.48 -0.66 -2.56 -1.16 -2.56 -2.54 c0 -1.52 1.4 -2.22 2.78 -2.22 c1.26 0 1.92 0.74 2.26 1.2 c0.12 0.16 0.32 0.02 0.2 -0.14 c-0.34 -0.42 -1.06 -1.3 -2.46 -1.3 c-1.58 0 -3.02 0.78 -3.02 2.46 c0 1.5 1.2 2.08 2.72 2.78 l0.62 0.3 c1.98 0.94 2.7 1.82 2.54 3.1 c-0.3 2.04 -1.86 2.3 -2.54 2.3 c-1.5 0 -2.5 -0.9 -2.8 -1.46 c-0.1 -0.1 -0.24 0 -0.2 0.12 z M46.96 6.9 l1.74 3.36 l1.7 -3.36 c0.06 -0.1 0.08 -0.1 0.16 -0.1 l2.24 0 c0.12 0 0.2 0.12 0.16 0.22 l-2.9 6.74 l0 6.06 c0 0.1 -0.08 0.18 -0.18 0.18 l-2.36 0 c-0.06 0 -0.14 -0.08 -0.14 -0.18 l0 -6.06 l-2.98 -6.7 c-0.04 -0.14 0.02 -0.26 0.16 -0.26 l2.24 0 c0.08 0 0.1 0 0.16 0.1 z M48.8 13.3 l2.5 -5.2 c0.06 -0.12 -0.14 -0.22 -0.22 -0.08 l-2.38 4.98 l-2.44 -4.98 c-0.08 -0.14 -0.3 -0.04 -0.24 0.1 l2.56 5.18 l0 5.52 c0 0.14 0.22 0.16 0.22 0 l0 -5.52 z"></path>
		</g>
	</g>
</svg>
	